<svg xmlns="http://www.w3.org/2000/svg" xmlns:xlink="http://www.w3.org/1999/xlink" fill="none" viewBox="0 0 30 30"><g clip-path="url(#a)"><mask id="b" width="29" height="30" x="0" y="0" maskUnits="userSpaceOnUse" style="mask-type:luminance"><path fill="#fff" d="M.441 29.599c.236-7.116 1.442-13.756 3.459-18.92C6.453 4.14 10.15.535 14.31.535c4.159 0 7.855 3.603 10.409 10.145 1.328 3.402 2.306 7.445 2.885 11.844.052.392.096.791.14 1.19.015.024.025.047.02.066 0 0 .342 2.126.413 5.82h-.038c-.504-.415-6.459-5.093-16.327-3.738.15-1.67.353-3.295.618-4.853l.043-.235c3.872-.117 7.26.333 9.857.922-.01-.062-.018-.126-.027-.187-.535-3.326-1.322-6.37-2.338-8.973-1.66-4.254-3.828-6.898-5.656-6.898-1.827 0-3.994 2.643-5.655 6.898a36.062 36.062 0 0 0-1.096 3.285 48.722 48.722 0 0 0-1.159 5.188c-.458 2.699-.744 5.593-.85 8.59H.441Z"/></mask><g mask="url(#b)"><linearGradient id="g" x1="0" y1="0" x2="1" y2="1"><stop offset="0%" stop-color="#00C2FF"/><stop offset="100%" stop-color="#0057FF"/></linearGradient><rect fill="url(#g)" width="30" height="30"/></g></g><defs><clipPath id="a"><path fill="#fff" d="M0 0h28.502v30H0z"/></clipPath></defs></svg>
